<?xml version="1.0" encoding="utf-8"?>
<!-- Generator: Adobe Illustrator 23.0.2, SVG Export Plug-In . SVG Version: 6.00 Build 0)  -->
<svg version="1.1" xmlns="http://www.w3.org/2000/svg" xmlns:xlink="http://www.w3.org/1999/xlink" x="0px" y="0px"
	 viewBox="0 0 500 500" style="enable-background:new 0 0 500 500;" xml:space="preserve">
<style type="text/css">
	.st0{fill:#30BE76;}
	.st1{fill:#50BA7D;}
	.st2{fill:#20894F;}
</style>
<g id="Calque_2">
	<path class="st0" d="M238.5,311.5c-15.56-5.81-31.09-25.43-32.5-56.5c-2.35-51.79,28.69-126.56,121.5-157.5c0,0-16,52,1.5,120.5
		c10.5,61.5-50,100-68.5,97.5C261,316,293,295,281,225c-3-23,8-48,8-48s-12,16-15,33c-1,8-2,20-2,30c-0.55,24.33-5.67,50.88-19,72
		c-10.78,17.07-27.68,29.83-46,41l-10-9C197,344,234,324,238.5,311.5z"/>
</g>
<g id="Calque_4">
	<path class="st1" d="M155.09,317.36c-6.15,9.38-21.38,16.68-42.05,12.97c-34.45-6.17-79.06-37.76-85.59-103.49
		c0,0,31.85,18.29,79.57,16.98c42.06,2.26,58.39,47.84,53.99,59.65c0.4-0.25-8.65-24.46-56.53-26.99
		c-15.59-1.45-30.41-12.43-30.41-12.43s8.75,10.29,19.49,14.8c5.12,1.85,12.87,4.3,19.46,5.79c15.94,3.99,32.66,11.32,44.58,23.25
		c9.63,9.64,15.51,22.67,20.14,36.4l-7.42,5.24C170.3,349.53,162.65,322.19,155.09,317.36z"/>
</g>
<g id="Calque_3">
	<path class="st2" d="M322.38,344.02c-5.22-9.41-4.61-25.61,7.77-41.51c20.64-26.5,67.39-50.26,126.13-26.44
		c0,0-29.76,18.88-49.97,59.98c-20.71,34.71-66.71,28.21-74.77,19.19c0.04,0.46,24.63,3.58,48.18-35.95
		c8.2-12.59,24.14-20.27,24.14-20.27s-12.64,2.83-21.28,9.94c-3.86,3.52-9.4,9.01-13.61,13.93c-10.51,11.75-24.2,22.68-39.66,27.47
		c-12.49,3.87-26.18,3.04-39.91,0.83l-1.14-8.64C288.26,342.57,314.9,348.29,322.38,344.02z"/>
</g>
</svg>
