<?xml version="1.0" encoding="UTF-8"?>
<svg width="22px" height="22px" viewBox="0 0 22 22" version="1.1" xmlns="http://www.w3.org/2000/svg" xmlns:xlink="http://www.w3.org/1999/xlink">
    <!-- Generator: Sketch 53.1 (72631) - https://sketchapp.com -->
    <title>Slice 1</title>
    <desc>Created with Sketch.</desc>
    <g id="Page-1" stroke="none" stroke-width="1" fill="none" fill-rule="evenodd">
        <g id="alert-circle-2">
            <path d="M11,22 C4.92486775,22 0,17.0751322 0,11 C0,4.92486775 4.92486775,0 11,0 C17.0751322,0 22,4.92486775 22,11 C22,17.0751322 17.0751322,22 11,22 Z M11,20 C15.9705627,20 20,15.9705627 20,11 C20,6.02943725 15.9705627,2 11,2 C6.02943725,2 2,6.02943725 2,11 C2,15.9705627 6.02943725,20 11,20 Z M10,7 C10,6.44771525 10.4477153,6 11,6 C11.5522847,6 12,6.44771525 12,7 L12,11 C12,11.5522847 11.5522847,12 11,12 C10.4477153,12 10,11.5522847 10,11 L10,7 Z" id="Combined-Shape" fill="#FF0000"></path>
            <path d="M11,15 L11,15" id="Path" stroke="#000000" stroke-width="2" stroke-linecap="round" stroke-linejoin="round"></path>
        </g>
        <circle id="Oval" fill="#FF0000" cx="11" cy="15" r="1"></circle>
    </g>
</svg>